<?xml version="1.0" encoding="utf-8"?>
<!-- Generator: Adobe Illustrator 22.1.0, SVG Export Plug-In . SVG Version: 6.00 Build 0)  -->
<svg version="1.1" id="Camada_1" xmlns="http://www.w3.org/2000/svg" xmlns:xlink="http://www.w3.org/1999/xlink" x="0px" y="0px"
	 viewBox="0 0 502.5 152.9" width="160px" style="enable-background:new 0 0 502.5 152.9;" xml:space="preserve">
<style type="text/css">
	.st0{fill:#ED1828;}
</style>
<title>Logo_guitarFlix</title>
<path class="st0" d="M45.4,63.7h21.1c0,13.3-0.2,26.6-0.3,40c0.2,15.6-5.6,32.3-22.6,35.2c-18.3,3.1-22.8-18.2-22.1-32V41.5
	c0-12.9,7.3-28.6,22.5-27.9c14.5,0.7,23.5,13.8,22.5,27.9v10.4H52.2V40.5c0-7.6-3-10.6-7.8-10.6s-7.8,3-7.8,10.6
	c0,22.2-0.1,44.5-0.2,66.7c0,10.4,2.9,13.6,7.7,13.1c4.8-0.5,7.8-4.2,7.9-14.2c0.1-10.3,0.1-15.7,0.2-25.2L45.3,81
	C45.3,73.5,45.4,70.2,45.4,63.7z"/>
<path class="st0" d="M90.7,15c0,29.6-0.1,59.1-0.4,88.7c-0.1,9.1,2.9,12.1,7.7,11.7c4.8-0.4,7.9-3.7,8-12.5
	c0.3-29.3,0.4-58.6,0.4-87.9h14.3c0,28.6,0,57.3-0.4,85.9c0.2,15.1-6.9,29.5-22.9,31.5c-17.1,2.2-23-15-22.1-29.1
	c0.3-29.4,0.4-58.9,0.4-88.3L90.7,15z"/>
<path class="st0" d="M131,15c6,0,9.2,0,15.2,0v111.8c-6.1,0.4-9.1,0.7-15.2,1.2C131.1,90.4,131.1,52.7,131,15z"/>
<path class="st0" d="M152.6,15h46.7v16.1h-15.8c0,31.1-0.1,62.3-0.3,93.4c-6.1,0.3-9.1,0.5-15.2,0.8c0.2-31.4,0.4-62.8,0.4-94.2
	h-15.8L152.6,15L152.6,15z"/>
<path class="st0" d="M288.1,123.3c-0.8-2.9-1.4-4.8-1.4-13.3c0-6.6,0-9.7,0-16.1c0-9.5-3-13.2-9.9-13.2h-5.2c0,14.1,0,28.2,0,42.2
	c-6-0.1-9.1-0.1-15.1-0.2c0-35.9,0-71.9,0-107.8h22.9c14.5,0,23.5,11.2,22.4,25.5v8.4c0,11.1-3.2,19.1-9.9,22.8
	c7.5,3.7,10,11.9,10,22.8c0,6.4,0,9.6,0,16.1c0,5.1,0.1,9,1.6,13.2C297.3,123.5,294.3,123.4,288.1,123.3z M271.7,31.1v33.5h5.9
	c5.6,0,9.1-3.1,9.1-11.8V42.2c0-7.6-2.3-11.1-7.7-11.1H271.7z"/>
<path class="st0" d="M326.9,63.9h19.5c0,6.5,0,9.8,0,16.1c-7.8,0-11.7,0-19.5-0.1l-0.1,44.8c-6-0.3-9-0.5-15.1-0.7
	c0-36.4,0.1-72.7,0.1-109.1h40V31h-24.9V63.9z"/>
<path class="st0" d="M359,15h15.1c0,32.2,0,64.5-0.1,96.7c9.9,0.6,14.9,1,24.8,1.7c0,7,0,10.4-0.1,16.8c-13.3-1.3-26.6-2.5-39.9-3.4
	C359,89.5,359,52.2,359,15z"/>
<path class="st0" d="M405.6,15h15.1c0,39.2-0.1,78.4-0.2,117.5c-6-0.7-9.1-1-15.1-1.6C405.5,92.3,405.6,53.6,405.6,15z"/>
<path class="st0" d="M482.1,15c-5.1,17.9-10.7,35.8-15.8,53.7c6.7,23.7,11,48.1,16.9,72c-6.4-1-9.6-1.4-16-2.3
	c-4.3-18.3-8.2-36.7-12.3-55.1c-4.1,17.3-7.9,34.7-12.6,51.8c-5.7-0.7-8.5-1.1-14.2-1.7c6.1-21.5,11.1-43.2,17.1-64.7
	c-5.1-17.9-10.7-35.8-15.8-53.7h15.7c3.7,13.5,7.6,27,11.4,40.4c3.9-13.5,7.9-26.9,11.7-40.4H482.1z"/>
<path class="st0" d="M229.2,16.2c0,3.9,0.5,7.8,1.7,11.4c-1.1,0.9-2.2,1.7-3.2,2.6c-0.8,0.7-1.2,1.8-1.1,2.8
	c0.1,9.3,0.2,18.5,0.3,27.8c0.1,10.5,0.2,21,0.3,31.5c0.1,2.8,1.3,5.4,3.2,7.4c0.9,1.2,2.6,1.4,3.8,0.6c0.3-0.2,0.5-0.5,0.7-0.8
	c0.7-1.1,1.4-2.3,1.9-3.6c0.4-0.8,0.7-1.7,1.2-2.5c0.9-1.4,2.6-1.6,3.5-0.2c0.7,1,1,2.2,1.1,3.5c-0.1,1.7-0.5,3.3-1.1,4.8
	c-0.7,1.8-1.6,3.5-2.4,5.2c-1.2,2.3-1,5.1,0.4,7.3c1,1.5,2,3,3,4.6c0.8,1.3,1.4,2.7,1.9,4.1c1.6,0,3.2,0,5.2,0
	c-5.1-35.9-10.5-71.8-15.4-107.8h-5C229.2,15.4,229.2,15.8,229.2,16.2z"/>
<path class="st0" d="M206.2,117.1c3.8-4.8,4.5-9.8,2-15.4c-1.1-2.6-2-5.2-2.6-8c-0.6-2.6-0.3-5.3,0.7-7.7c0.4-0.9,0.9-1.7,1.5-2.4
	c0.6-0.8,1.6-1,2.5-0.6c1,0.3,1.7,1.3,1.6,2.3c-0.1,0.8-0.2,1.7-0.4,2.5c-0.3,2.2,0.8,4.4,2.7,5.6c1.9,1.3,4,1.1,5.9,0.1
	c0.3-0.1,0.4-0.8,0.4-1.2c0.1-7.2,0.1-14.4,0.2-21.7c0.1-12.1,0.2-24.3,0.4-36.4c0-1.9-0.3-3.3-2-4.2c-1-0.5-1.8-1.1-1-2.1
	c-0.6-0.3-1.1-0.6-1.6-1.1c-0.2-0.2,0.2-1.2,0.4-1.2c0.7,0,1.3,0,2,0.2l0.3-0.8c-0.6-0.3-1.1-0.6-1.6-1.1c-0.1-0.4,0.1-0.9,0.4-1.2
	c0.6-0.1,1.2-0.1,1.8,0l0.1,0.3l0.4-0.9c-0.6-0.4-1.1-0.8-1.6-1.3c-0.1-0.2,0.3-1.1,0.5-1.1c0.6,0,1.3,0,1.9,0.2l0.2-0.6
	c-0.6-0.4-1.1-0.9-1.6-1.4c-0.1-0.1,0.2-1,0.5-1c0.6-0.1,1.2,0,1.8,0.1l0.1,0.3c0.1-0.4,0.3-0.8,0.3-0.9c-0.6-0.4-1.1-0.8-1.6-1.3
	c0-0.1,0-0.2,0-0.3h-8.5c-4.9,36.4-10.3,72.6-15.6,108.9c2.5-0.1,4.5-0.2,6.4-0.2C203.5,121.3,204.6,119,206.2,117.1z"/>
</svg>
